Coordinates
version=1
nRows=19
nColumns=24
inDegrees=yes

Units are S.I. units (second, meters, Newtons, ...)
Angles are in degrees.

endheader
time	pelvis_tilt	pelvis_list	pelvis_rotation	pelvis_tx	pelvis_ty	pelvis_tz	hip_flexion_r	hip_adduction_r	hip_rotation_r	knee_angle_r	ankle_angle_r	subtalar_angle_r	mtp_angle_r	hip_flexion_l	hip_adduction_l	hip_rotation_l	knee_angle_l	ankle_angle_l	subtalar_angle_l	mtp_angle_l	lumbar_extension	lumbar_bending	lumbar_rotation
      1.02866667	     10.12268361	     -3.68100915	     -3.18445341	      0.42474530	      1.03297099	      0.35992767	     -2.31464581	      6.87953208	      2.26758552	    -13.82451926	     -1.80026971	    -19.36597242	     -6.94019710	      9.53993126	     -6.58764504	     -7.87843081	    -67.15930281	      3.06371908	    -17.79403259	    -17.27431070	    -21.91478293	      5.05327160	      4.52280687
      1.03283333	     10.25743407	     -3.50458985	     -3.44624351	      0.43008436	      1.03404956	      0.36073021	     -2.99021627	      6.66540502	      2.51670892	    -13.44163445	     -1.72374537	    -19.31814721	     -6.88593213	      9.83285478	     -6.41079387	     -8.09131179	    -66.29239161	      3.15621069	    -17.89718718	    -17.23429301	    -22.02316773	      4.69692191	      4.67232982
      1.03700000	     10.40029999	     -3.33845803	     -3.72062031	      0.43541045	      1.03510370	      0.36152896	     -3.67292688	      6.45385065	      2.77780530	    -13.05542134	     -1.67193318	    -19.27081591	     -6.83347968	     10.09447254	     -6.25070679	     -8.32980254	    -65.37715514	      3.28008088	    -18.02870572	    -17.20228112	    -22.14134417	      4.36175162	      4.85090234
      1.04116667	     10.53021673	     -3.17709830	     -3.97872091	      0.44069993	      1.03608260	      0.36232238	     -4.34081635	      6.24826133	      3.04302719	    -12.66208228	     -1.62387954	    -19.24215220	     -6.78810174	     10.36398390	     -6.10092322	     -8.55794544	    -64.42648866	      3.38911737	    -18.16382847	    -17.18242240	    -22.25356397	      4.01203786	      5.01177398
      1.04533333	     10.68841612	     -3.03256171	     -4.27112940	      0.44599003	      1.03707067	      0.36314554	     -5.03661069	      6.04841779	      3.33844692	    -12.27390539	     -1.57681055	    -19.21495077	     -6.73264365	     10.56692275	     -5.97955736	     -8.83999462	    -63.41964425	      3.54644017	    -18.33295148	    -17.16784454	    -22.39302978	      3.69605434	      5.22529684
      1.04950000	     10.79173459	     -2.87430046	     -4.52203804	      0.45126200	      1.03791802	      0.36391376	     -5.66301620	      5.83843126	      3.59145339	    -11.89705440	     -1.52075299	    -19.21533600	     -6.69528322	     10.83370762	     -5.84115295	     -9.07404842	    -62.37765451	      3.62681678	    -18.47300271	    -17.16865901	    -22.46713523	      3.36464441	      5.35273615
      1.05366667	     10.91617161	     -2.72228720	     -4.78971180	      0.45653142	      1.03876306	      0.36469676	     -6.31076728	      5.62542340	      3.86219502	    -11.51978261	     -1.46839356	    -19.20704088	     -6.66022840	     11.04738381	     -5.71675550	     -9.34319056	    -61.28099261	      3.73116533	    -18.63794255	    -17.18038632	    -22.56349713	      3.03498835	      5.51314871
      1.05783333	     11.03350290	     -2.58740864	     -5.05558351	      0.46176851	      1.03953390	      0.36547625	     -6.94549997	      5.42862510	      4.14423234	    -11.14857631	     -1.41673330	    -19.21334129	     -6.62843560	     11.25548741	     -5.61664954	     -9.61764306	    -60.15264207	      3.84254600	    -18.80632913	    -17.20408042	    -22.66019176	      2.72479975	      5.67510013
      1.06200000	     11.13609248	     -2.45852385	     -5.32222722	      0.46696653	      1.04023479	      0.36625178	     -7.55665262	      5.23555254	      4.44481693	    -10.78599766	     -1.36212505	    -19.22319031	     -6.59937039	     11.46451223	     -5.52552198	     -9.89323497	    -58.98444632	      3.95051293	    -18.98692008	    -17.24176483	    -22.75041107	      2.42448682	      5.84402963
      1.06616667	     11.20776773	     -2.33639298	     -5.58105443	      0.47218286	      1.04084393	      0.36701153	     -8.12664343	      5.04896224	      4.72254443	    -10.43854653	     -1.30583698	    -19.24682475	     -6.57593517	     11.69041715	     -5.44820656	    -10.17109833	    -57.77769678	      4.03944375	    -19.16610341	    -17.29172330	    -22.79599080	      2.13933753	      5.99398107
      1.07033333	     11.31139824	     -2.22977605	     -5.84727190	      0.47736706	      1.04144407	      0.36777640	     -8.73047065	      4.86930514	      5.01799174	    -10.08787513	     -1.25387421	    -19.27451327	     -6.55407541	     11.85754489	     -5.39178989	    -10.47200349	    -56.52851154	      4.14107785	    -19.34985484	    -17.36477638	    -22.88045528	      1.85875993	      6.16762658
      1.07450000	     11.36666906	     -2.12736183	     -6.08903358	      0.48255125	      1.04191077	      0.36850681	     -9.27063780	      4.69962289	      5.28277657	     -9.76043091	     -1.18409566	    -19.31140641	     -6.54090569	     12.07126717	     -5.34302824	    -10.75024214	    -55.25067095	      4.18733713	    -19.53240129	    -17.44013721	    -22.90896015	      1.59678685	      6.28770218
      1.07866667	     11.45832379	     -2.04198831	     -6.35181065	      0.48772694	      1.04238893	      0.36927042	     -9.85108597	      4.53540103	      5.56503066	     -9.42658910	     -1.13974701	    -19.34217557	     -6.52945556	     12.21328878	     -5.31915354	    -11.06984288	    -53.93026521	      4.29055571	    -19.70320220	    -17.56174054	    -22.98234729	      1.33921941	      6.48586576
      1.08283333	     11.46465341	     -1.96017301	     -6.56955575	      0.49288090	      1.04267054	      0.36993257	    -10.32438364	      4.38857939	      5.81718614	     -9.12486113	     -1.04863271	    -19.38213360	     -6.52617996	     12.45638155	     -5.29337885	    -11.33109316	    -52.59103909	      4.28692969	    -19.90891462	    -17.65619195	    -22.96337107	      1.11601353	      6.55910727
      1.08700000	     11.49070603	     -1.89038066	     -6.80016068	      0.49805588	      1.04294162	      0.37061354	    -10.82001373	      4.24439118	      6.07119944	     -8.82216214	     -0.96382789	    -19.41196055	     -6.52614401	     12.64610832	     -5.28689723	    -11.62499586	    -51.20776006	      4.30282269	    -20.10361090	    -17.76587826	    -22.96541122	      0.89606912	      6.68594679
      1.09116667	     11.50403501	     -1.83571738	     -7.02569225	      0.50320421	      1.04313447	      0.37127748	    -11.29434835	      4.11529948	      6.32062311	     -8.53097787	     -0.88465391	    -19.44940823	     -6.52984009	     12.83576444	     -5.29944223	    -11.92347563	    -49.79904808	      4.31514069	    -20.28978093	    -17.88568344	    -22.95942123	      0.70043281	      6.80693876
      1.09533333	     11.55295491	     -1.80122381	     -7.26208530	      0.50835645	      1.04332978	      0.37197899	    -11.80921413	      3.99827972	      6.57892028	     -8.23917038	     -0.82398993	    -19.48054991	     -6.54102547	     12.95743178	     -5.33882732	    -12.25421450	    -48.35408952	      4.36280123	    -20.45957376	    -18.06355195	    -22.98923201	      0.50997239	      6.98362644
      1.09950000	     11.48533547	     -1.77525731	     -7.43839206	      0.51353855	      1.04327945	      0.37254202	    -12.18497316	      3.91217817	      6.76113833	     -7.98361967	     -0.71525074	    -19.52306040	     -6.54894198	     13.21821136	     -5.38436329	    -12.51724601	    -46.90749753	      4.31473726	    -20.65490574	    -18.17503415	    -22.87908299	      0.37044505	      7.02719244
      1.10366667	     11.50048561	     -1.75721242	     -7.65230105	      0.51864973	      1.04331068	      0.37316234	    -12.65087051	      3.81270781	      7.01886027	     -7.71888539	     -0.60208357	    -19.53888757	     -6.56092035	     13.35180462	     -5.43445266	    -12.83103222	    -45.40471514	      4.27437580	    -20.83637368	    -18.32903062	    -22.89935616	      0.22116333	      7.15512698
